<?xml version="1.0" standalone="no"?>
<!DOCTYPE svg PUBLIC "-//W3C//DTD SVG 20010904//EN"
 "http://www.w3.org/TR/2001/REC-SVG-20010904/DTD/svg10.dtd">
<svg version="1.0" xmlns="http://www.w3.org/2000/svg"
 width="500.000000pt" height="500.000000pt" viewBox="0 0 500.000000 500.000000"
 preserveAspectRatio="xMidYMid meet">

<g transform="translate(0.000000,500.000000) scale(0.100000,-0.100000)"
fill="#000000" stroke="none">
<path d="M2225 4725 c-604 -70 -1159 -395 -1534 -900 -199 -267 -340 -602
-402 -950 -31 -175 -34 -540 -6 -710 108 -651 458 -1189 1007 -1547 393 -257
859 -377 1354 -347 306 18 554 83 831 219 673 329 1128 951 1240 1695 26 167
23 492 -4 659 -40 241 -104 443 -207 651 -242 492 -677 891 -1190 1096 -319
126 -725 176 -1089 134z m540 -928 c84 -28 142 -63 195 -118 80 -83 126 -224
101 -314 -19 -72 -97 -125 -183 -125 -32 0 -34 7 -42 131 -13 221 -98 375
-230 414 -144 43 -294 -9 -375 -131 -95 -144 -108 -433 -26 -596 57 -113 129
-174 414 -347 328 -199 431 -307 487 -511 25 -92 26 -316 1 -423 -27 -114 -88
-228 -161 -301 -120 -120 -262 -169 -486 -170 -208 0 -325 37 -439 140 -86 79
-133 175 -139 287 -7 135 27 209 113 248 79 36 79 35 93 -108 11 -131 45 -271
83 -345 68 -133 211 -208 373 -195 94 8 135 21 193 60 119 82 185 273 168 487
-12 161 -51 256 -143 353 -69 71 -133 117 -325 233 -307 184 -432 321 -483
530 -24 95 -24 305 -1 394 61 234 227 387 465 430 85 16 269 4 347 -23z"/>
</g>
</svg>
